<svg width="216" height="225" viewBox="0 0 216 225" fill="none" xmlns="http://www.w3.org/2000/svg">
<g opacity="0.8" clip-path="url(#clip0_2234_9590)">
<path d="M34.0829 163.335C35.2502 164.232 35.4507 165.783 34.5507 166.954C33.6506 168.126 32.1002 168.331 30.9329 167.434C29.7656 166.537 29.5651 164.986 30.4652 163.815C31.3652 162.644 33.0129 162.513 34.0829 163.335Z" fill="#FFCF2D"/>
<path d="M47.5082 145.864C48.6755 146.761 48.876 148.312 47.9759 149.484C47.0759 150.655 45.5255 150.86 44.3582 149.963C43.1909 149.066 42.9904 147.515 43.8905 146.344C44.7155 145.27 46.4382 145.042 47.5082 145.864Z" fill="#FFCF2D"/>
<path d="M60.8583 128.492C62.0256 129.389 62.2261 130.94 61.326 132.112C60.426 133.283 58.8756 133.488 57.7083 132.591C56.541 131.694 56.3405 130.143 57.2406 128.972C58.1406 127.801 59.7883 127.67 60.8583 128.492Z" fill="#FFCF2D"/>
<path d="M74.2836 111.022C75.4509 111.92 75.6514 113.471 74.7513 114.642C73.8513 115.813 72.3008 116.019 71.1336 115.122C69.9663 114.225 69.7658 112.673 70.6659 111.502C71.5659 110.331 73.2136 110.2 74.2836 111.022Z" fill="#FFCF2D"/>
<path d="M87.7089 93.5528C88.8762 94.4498 89.0766 96.001 88.1766 97.1721C87.2766 98.3433 85.7261 98.5489 84.5589 97.6518C83.3916 96.7548 83.1911 95.2037 84.0911 94.0325C84.9162 92.9589 86.6389 92.7305 87.7089 93.5528Z" fill="#FFCF2D"/>
<path d="M101.134 76.0831C102.301 76.9801 102.502 78.5312 101.602 79.7024C100.702 80.8736 99.1514 81.0792 97.9841 80.1821C96.8169 79.2851 96.6164 77.7339 97.5164 76.5628C98.4165 75.3916 100.064 75.2608 101.134 76.0831Z" fill="#FFCF2D"/>
<path d="M114.484 58.711C115.652 59.608 115.852 61.1592 114.952 62.3303C114.052 63.5015 112.502 63.7071 111.334 62.81C110.167 61.913 109.967 60.3619 110.867 59.1907C111.767 58.0195 113.414 57.8887 114.484 58.711Z" fill="#FFCF2D"/>
<path d="M127.91 41.2413C129.077 42.1383 129.277 43.6894 128.377 44.8606C127.477 46.0318 125.927 46.2374 124.76 45.3403C123.592 44.4433 123.392 42.8921 124.292 41.721C125.192 40.5498 126.84 40.419 127.91 41.2413Z" fill="#FFCF2D"/>
<path d="M141.335 23.7715C142.502 24.6686 142.703 26.2197 141.803 27.3909C140.903 28.562 139.352 28.7676 138.185 27.8706C137.018 26.9736 136.817 25.4224 137.717 24.2513C138.542 23.1777 140.265 22.9493 141.335 23.7715Z" fill="#FFCF2D"/>
<path d="M48.5766 174.473C49.7439 175.37 49.9443 176.921 49.0443 178.092C48.1443 179.263 46.5938 179.469 45.4265 178.572C44.2593 177.675 44.0588 176.124 44.9588 174.952C45.8588 173.781 47.4093 173.576 48.5766 174.473Z" fill="#FFCF2D"/>
<path d="M62.0019 157.003C63.1692 157.9 63.3696 159.451 62.4696 160.622C61.5696 161.793 60.0191 161.999 58.8518 161.102C57.6845 160.205 57.4841 158.654 58.3841 157.483C59.2091 156.409 60.8346 156.106 62.0019 157.003Z" fill="#FFCF2D"/>
<path d="M75.352 139.631C76.5193 140.528 76.7197 142.079 75.8197 143.25C74.9197 144.421 73.3692 144.627 72.2019 143.73C71.0346 142.833 70.8342 141.282 71.7342 140.111C72.6342 138.939 74.1847 138.734 75.352 139.631Z" fill="#FFCF2D"/>
<path d="M88.7773 122.161C89.9446 123.058 90.145 124.609 89.245 125.781C88.345 126.952 86.7945 127.157 85.6272 126.26C84.4599 125.363 84.2595 123.812 85.1595 122.641C86.0595 121.47 87.61 121.264 88.7773 122.161Z" fill="#FFCF2D"/>
<path d="M102.203 104.69C103.37 105.588 103.57 107.139 102.67 108.31C101.77 109.481 100.22 109.687 99.0525 108.79C97.8852 107.893 97.6848 106.341 98.5848 105.17C99.4098 104.097 101.035 103.793 102.203 104.69Z" fill="#FFCF2D"/>
<path d="M115.628 87.2208C116.795 88.1178 116.996 89.6689 116.096 90.8401C115.196 92.0113 113.645 92.2169 112.478 91.3198C111.311 90.4228 111.11 88.8716 112.01 87.7005C112.91 86.5293 114.461 86.3237 115.628 87.2208Z" fill="#FFCF2D"/>
<path d="M128.978 69.8487C130.145 70.7457 130.346 72.2969 129.446 73.468C128.546 74.6392 126.995 74.8448 125.828 73.9477C124.661 73.0507 124.46 71.4996 125.36 70.3284C126.26 69.1572 127.811 68.9517 128.978 69.8487Z" fill="#FFCF2D"/>
<path d="M142.403 52.3789C143.571 53.276 143.771 54.8271 142.871 55.9983C141.971 57.1695 140.42 57.3751 139.253 56.478C138.086 55.581 137.885 54.0298 138.785 52.8587C139.685 51.6875 141.236 51.4819 142.403 52.3789Z" fill="#FFCF2D"/>
<path d="M155.829 34.9092C156.996 35.8063 157.196 37.3574 156.296 38.5286C155.396 39.6997 153.846 39.9053 152.678 39.0083C151.511 38.1113 151.311 36.5601 152.211 35.3889C153.036 34.3154 154.661 34.0122 155.829 34.9092Z" fill="#FFCF2D"/>
<path d="M5.1928 141.133C6.36008 142.03 6.56053 143.581 5.66052 144.752C4.7605 145.923 3.21003 146.129 2.04274 145.232C0.875462 144.335 0.675012 142.784 1.57503 141.613C2.47504 140.441 4.02552 140.236 5.1928 141.133Z" fill="#FFCF2D"/>
<path d="M18.6181 123.663C19.7854 124.56 19.9858 126.111 19.0858 127.282C18.1858 128.454 16.6353 128.659 15.468 127.762C14.3008 126.865 14.1003 125.314 15.0003 124.143C15.8253 123.069 17.4508 122.766 18.6181 123.663Z" fill="#FFCF2D"/>
<path d="M31.9682 106.291C33.1355 107.188 33.3359 108.739 32.4359 109.91C31.5359 111.082 29.9854 111.287 28.8181 110.39C27.6509 109.493 27.5254 107.844 28.3504 106.771C29.2504 105.6 30.8009 105.394 31.9682 106.291Z" fill="#FFCF2D"/>
<path d="M45.3935 88.8213C46.5608 89.7184 46.7612 91.2695 45.8612 92.4407C44.9612 93.6118 43.4107 93.8174 42.2434 92.9204C41.0761 92.0234 40.9507 90.3746 41.7757 89.3011C42.6007 88.2275 44.2262 87.9243 45.3935 88.8213Z" fill="#FFCF2D"/>
<path d="M58.8188 71.3516C59.9861 72.2486 60.1865 73.7998 59.2865 74.971C58.3865 76.1421 56.836 76.3477 55.6687 75.4507C54.5014 74.5536 54.301 73.0025 55.201 71.8313C56.026 70.7578 57.6515 70.4546 58.8188 71.3516Z" fill="#FFCF2D"/>
<path d="M72.2441 53.8809C73.4114 54.7779 73.6118 56.3291 72.7118 57.5002C71.8118 58.6714 70.2613 58.877 69.094 57.98C67.9267 57.0829 67.7263 55.5318 68.6263 54.3606C69.5263 53.1895 71.0768 52.9839 72.2441 53.8809Z" fill="#FFCF2D"/>
<path d="M85.5942 36.5088C86.7614 37.4059 86.9619 38.957 86.0619 40.1282C85.1619 41.2993 83.6114 41.5049 82.4441 40.6079C81.2768 39.7109 81.0764 38.1597 81.9764 36.9886C82.8764 35.8174 84.4269 35.6118 85.5942 36.5088Z" fill="#FFCF2D"/>
<path d="M99.0195 19.0391C100.187 19.9361 100.387 21.4873 99.4872 22.6585C98.5872 23.8296 97.0367 24.0352 95.8694 23.1382C94.7021 22.2411 94.5017 20.69 95.4017 19.5188C96.3017 18.3477 97.8522 18.1421 99.0195 19.0391Z" fill="#FFCF2D"/>
<path d="M112.445 1.5694C113.612 2.46644 113.812 4.01757 112.912 5.18873C112.012 6.35988 110.462 6.56548 109.295 5.66845C108.127 4.77141 107.927 3.22026 108.827 2.0491C109.652 0.975542 111.277 0.672364 112.445 1.5694Z" fill="#FFCF2D"/>
<path d="M19.6865 152.272C20.8537 153.169 21.0542 154.72 20.1542 155.891C19.2542 157.062 17.6064 157.193 16.5364 156.371C15.3691 155.474 15.1687 153.922 16.0687 152.751C16.9687 151.58 18.5192 151.374 19.6865 152.272Z" fill="#FFCF2D"/>
<path d="M33.1117 134.801C34.279 135.698 34.4795 137.249 33.5795 138.42C32.6794 139.591 31.129 139.797 29.9617 138.9C28.7944 138.003 28.594 136.452 29.494 135.281C30.319 134.207 31.9445 133.904 33.1117 134.801Z" fill="#FFCF2D"/>
<path d="M46.4618 117.429C47.6291 118.326 47.8296 119.877 46.9296 121.048C46.0295 122.219 44.4791 122.425 43.3118 121.528C42.1445 120.631 41.9441 119.08 42.8441 117.908C43.7441 116.737 45.2946 116.532 46.4618 117.429Z" fill="#FFCF2D"/>
<path d="M59.8871 99.959C61.0544 100.856 61.2549 102.407 60.3549 103.578C59.4548 104.75 57.9044 104.955 56.7371 104.058C55.5698 103.161 55.3693 101.61 56.2694 100.439C57.1694 99.2676 58.7199 99.062 59.8871 99.959Z" fill="#FFCF2D"/>
<path d="M73.3124 82.4893C74.4797 83.3863 74.6802 84.9375 73.7801 86.1086C72.8801 87.2798 71.3297 87.4854 70.1624 86.5884C68.9951 85.6913 68.7946 84.1402 69.6947 82.969C70.5197 81.8955 72.1451 81.5923 73.3124 82.4893Z" fill="#FFCF2D"/>
<path d="M86.7377 65.0196C87.905 65.9166 88.1055 67.4678 87.2054 68.6389C86.3054 69.8101 84.7549 70.0157 83.5877 69.1186C82.4204 68.2216 82.2199 66.6705 83.1199 65.4993C84.02 64.3281 85.5704 64.1225 86.7377 65.0196Z" fill="#FFCF2D"/>
<path d="M100.088 47.6475C101.255 48.5445 101.456 50.0957 100.556 51.2669C99.6555 52.438 98.105 52.6436 96.9378 51.7466C95.7705 50.8495 95.57 49.2984 96.47 48.1272C97.3701 46.9561 98.9205 46.7505 100.088 47.6475Z" fill="#FFCF2D"/>
<path d="M113.513 30.1778C114.68 31.0748 114.881 32.626 113.981 33.7971C113.081 34.9683 111.53 35.1739 110.363 34.2768C109.196 33.3798 108.995 31.8287 109.895 30.6575C110.795 29.4863 112.346 29.2807 113.513 30.1778Z" fill="#FFCF2D"/>
<path d="M126.938 12.7081C128.106 13.6051 128.306 15.1562 127.406 16.3274C126.506 17.4986 124.956 17.7042 123.788 16.8071C122.621 15.9101 122.421 14.3589 123.321 13.1878C124.146 12.1142 125.771 11.811 126.938 12.7081Z" fill="#FFCF2D"/>
<path d="M62.9736 185.536C64.1408 186.433 64.3413 187.984 63.4413 189.156C62.5413 190.327 60.9908 190.532 59.8235 189.635C58.6562 188.738 58.4558 187.187 59.3558 186.016C60.2558 184.845 61.9036 184.714 62.9736 185.536Z" fill="#FFCF2D"/>
<path d="M76.3989 168.066C77.5661 168.963 77.7666 170.515 76.8666 171.686C75.9665 172.857 74.4161 173.063 73.2488 172.166C72.0815 171.268 71.8811 169.717 72.7811 168.546C73.6061 167.473 75.3288 167.244 76.3989 168.066Z" fill="#FFCF2D"/>
<path d="M89.749 150.694C90.9162 151.591 91.1167 153.143 90.2167 154.314C89.3167 155.485 87.7662 155.69 86.5989 154.793C85.4316 153.896 85.2312 152.345 86.1312 151.174C87.0312 150.003 88.6789 149.872 89.749 150.694Z" fill="#FFCF2D"/>
<path d="M103.174 133.225C104.342 134.122 104.542 135.673 103.642 136.844C102.742 138.015 101.191 138.221 100.024 137.324C98.8569 136.427 98.6565 134.876 99.5565 133.704C100.456 132.533 102.104 132.402 103.174 133.225Z" fill="#FFCF2D"/>
<path d="M116.6 115.755C117.767 116.652 117.967 118.203 117.067 119.374C116.167 120.545 114.617 120.751 113.449 119.854C112.282 118.957 112.082 117.406 112.982 116.235C113.807 115.161 115.53 114.933 116.6 115.755Z" fill="#FFCF2D"/>
<path d="M130.025 98.2842C131.192 99.1813 131.393 100.732 130.493 101.904C129.593 103.075 128.042 103.28 126.875 102.383C125.707 101.486 125.507 99.9351 126.407 98.7639C127.307 97.5928 128.955 97.4619 130.025 98.2842Z" fill="#FFCF2D"/>
<path d="M143.375 80.9121C144.542 81.8092 144.743 83.3603 143.843 84.5315C142.943 85.7027 141.392 85.9083 140.225 85.0112C139.058 84.1142 138.857 82.563 139.757 81.3919C140.657 80.2207 142.305 80.0899 143.375 80.9121Z" fill="#FFCF2D"/>
<path d="M156.8 63.4424C157.968 64.3395 158.168 65.8906 157.268 67.0618C156.368 68.2329 154.817 68.4385 153.65 67.5415C152.483 66.6445 152.282 65.0933 153.182 63.9221C154.082 62.751 155.73 62.6201 156.8 63.4424Z" fill="#FFCF2D"/>
<path d="M170.226 45.9727C171.393 46.8697 171.593 48.4209 170.693 49.592C169.793 50.7632 168.243 50.9688 167.075 50.0718C165.908 49.1747 165.708 47.6236 166.608 46.4524C167.433 45.3789 169.155 45.1504 170.226 45.9727Z" fill="#FFCF2D"/>
<path d="M77.4672 196.674C78.6345 197.571 78.8349 199.122 77.9349 200.293C77.0349 201.464 75.4844 201.67 74.3172 200.773C73.1499 199.876 72.9494 198.325 73.8494 197.154C74.7495 195.982 76.2999 195.777 77.4672 196.674Z" fill="#FFCF2D"/>
<path d="M90.8925 179.204C92.0598 180.101 92.2602 181.652 91.3602 182.823C90.4602 183.995 88.9097 184.2 87.7424 183.303C86.5752 182.406 86.3747 180.855 87.2747 179.684C88.0998 178.61 89.7252 178.307 90.8925 179.204Z" fill="#FFCF2D"/>
<path d="M104.243 161.832C105.41 162.729 105.61 164.28 104.71 165.451C103.81 166.623 102.26 166.828 101.093 165.931C99.9253 165.034 99.7248 163.483 100.625 162.312C101.525 161.141 103.075 160.935 104.243 161.832Z" fill="#FFCF2D"/>
<path d="M118.136 147.982C119.005 146.85 118.796 145.229 117.668 144.362C116.54 143.495 114.92 143.71 114.05 144.842C113.18 145.974 113.39 147.594 114.518 148.461C115.646 149.328 117.266 149.114 118.136 147.982Z" fill="#FFCF2D"/>
<path d="M131.093 126.893C132.26 127.79 132.461 129.341 131.561 130.512C130.661 131.683 129.11 131.889 127.943 130.992C126.776 130.095 126.575 128.544 127.475 127.372C128.3 126.299 129.926 125.996 131.093 126.893Z" fill="#FFCF2D"/>
<path d="M144.518 109.423C145.686 110.32 145.886 111.871 144.986 113.042C144.086 114.213 142.536 114.419 141.368 113.522C140.201 112.625 140.001 111.074 140.901 109.903C141.801 108.731 143.351 108.526 144.518 109.423Z" fill="#FFCF2D"/>
<path d="M157.869 92.0508C159.036 92.9479 159.236 94.499 158.336 95.6702C157.436 96.8413 155.886 97.0469 154.719 96.1499C153.551 95.2529 153.351 93.7017 154.251 92.5305C155.151 91.3594 156.701 91.1538 157.869 92.0508Z" fill="#FFCF2D"/>
<path d="M171.762 78.2004C172.631 77.0685 172.422 75.4481 171.294 74.5811C170.166 73.7141 168.546 73.9289 167.676 75.0608C166.806 76.1927 167.016 77.8132 168.144 78.6802C169.272 79.5471 170.892 79.3324 171.762 78.2004Z" fill="#FFCF2D"/>
<path d="M184.719 57.1114C185.886 58.0084 186.087 59.5595 185.187 60.7307C184.287 61.9019 182.736 62.1075 181.569 61.2104C180.402 60.3134 180.201 58.7622 181.101 57.5911C181.926 56.5175 183.552 56.2143 184.719 57.1114Z" fill="#FFCF2D"/>
<path d="M91.9609 207.813C93.1282 208.71 93.3286 210.261 92.4286 211.432C91.5286 212.603 89.9781 212.809 88.8108 211.912C87.6435 211.015 87.4431 209.463 88.3431 208.292C89.2431 207.121 90.7936 206.916 91.9609 207.813Z" fill="#FFCF2D"/>
<path d="M105.386 190.343C106.553 191.24 106.754 192.791 105.854 193.962C104.954 195.133 103.403 195.339 102.236 194.442C101.069 193.545 100.868 191.994 101.768 190.823C102.593 189.749 104.219 189.446 105.386 190.343Z" fill="#FFCF2D"/>
<path d="M118.736 172.971C119.904 173.868 120.104 175.419 119.204 176.59C118.304 177.761 116.753 177.967 115.586 177.07C114.419 176.173 114.218 174.622 115.118 173.45C116.018 172.279 117.569 172.074 118.736 172.971Z" fill="#FFCF2D"/>
<path d="M132.162 155.501C133.329 156.398 133.529 157.949 132.629 159.12C131.729 160.292 130.179 160.497 129.012 159.6C127.844 158.703 127.644 157.152 128.544 155.981C129.444 154.81 130.994 154.604 132.162 155.501Z" fill="#FFCF2D"/>
<path d="M145.587 138.031C146.754 138.928 146.955 140.479 146.055 141.651C145.155 142.822 143.604 143.027 142.437 142.13C141.27 141.233 141.069 139.682 141.969 138.511C142.794 137.437 144.42 137.134 145.587 138.031Z" fill="#FFCF2D"/>
<path d="M159.012 120.561C160.179 121.458 160.38 123.009 159.48 124.18C158.58 125.351 157.029 125.557 155.862 124.66C154.695 123.763 154.494 122.211 155.394 121.04C156.294 119.869 157.845 119.664 159.012 120.561Z" fill="#FFCF2D"/>
<path d="M172.362 103.189C173.53 104.086 173.73 105.637 172.83 106.808C171.93 107.979 170.379 108.185 169.212 107.288C168.045 106.391 167.844 104.839 168.744 103.668C169.644 102.497 171.195 102.291 172.362 103.189Z" fill="#FFCF2D"/>
<path d="M185.788 85.7188C186.955 86.6158 187.155 88.167 186.255 89.3381C185.355 90.5093 183.805 90.7149 182.637 89.8179C181.47 88.9208 181.27 87.3697 182.17 86.1985C183.07 85.0274 184.62 84.8218 185.788 85.7188Z" fill="#FFCF2D"/>
<path d="M199.213 68.2491C200.38 69.1461 200.581 70.6973 199.681 71.8684C198.781 73.0396 197.23 73.2452 196.063 72.3481C194.895 71.4511 194.695 69.8999 195.595 68.7288C196.42 67.6552 198.046 67.352 199.213 68.2491Z" fill="#FFCF2D"/>
<path d="M106.357 218.876C107.525 219.773 107.725 221.324 106.825 222.495C105.925 223.667 104.375 223.872 103.207 222.975C102.04 222.078 101.84 220.527 102.74 219.356C103.64 218.185 105.287 218.054 106.357 218.876Z" fill="#FFCF2D"/>
<path d="M119.783 201.406C120.95 202.303 121.15 203.854 120.25 205.026C119.35 206.197 117.8 206.402 116.633 205.505C115.465 204.608 115.265 203.057 116.165 201.886C116.99 200.812 118.713 200.584 119.783 201.406Z" fill="#FFCF2D"/>
<path d="M133.133 184.034C134.3 184.931 134.5 186.482 133.6 187.654C132.7 188.825 131.15 189.03 129.983 188.133C128.815 187.236 128.615 185.685 129.515 184.514C130.415 183.343 132.063 183.212 133.133 184.034Z" fill="#FFCF2D"/>
<path d="M146.558 166.564C147.725 167.462 147.926 169.013 147.026 170.184C146.126 171.355 144.575 171.561 143.408 170.664C142.241 169.767 142.04 168.215 142.94 167.044C143.84 165.873 145.488 165.742 146.558 166.564Z" fill="#FFCF2D"/>
<path d="M159.983 149.094C161.151 149.991 161.351 151.542 160.451 152.713C159.551 153.884 158.001 154.09 156.833 153.193C155.666 152.296 155.466 150.745 156.366 149.574C157.191 148.5 158.913 148.272 159.983 149.094Z" fill="#FFCF2D"/>
<path d="M173.409 131.624C174.576 132.521 174.776 134.072 173.876 135.243C172.976 136.415 171.426 136.62 170.259 135.723C169.091 134.826 168.891 133.275 169.791 132.104C170.691 130.933 172.339 130.802 173.409 131.624Z" fill="#FFCF2D"/>
<path d="M186.759 114.252C187.926 115.149 188.126 116.7 187.226 117.871C186.326 119.042 184.776 119.248 183.609 118.351C182.441 117.454 182.241 115.903 183.141 114.732C184.041 113.561 185.689 113.43 186.759 114.252Z" fill="#FFCF2D"/>
<path d="M200.184 96.7823C201.351 97.6793 201.552 99.2305 200.652 100.402C199.752 101.573 198.201 101.778 197.034 100.881C195.867 99.9843 195.666 98.4332 196.566 97.262C197.466 96.0908 199.114 95.96 200.184 96.7823Z" fill="#FFCF2D"/>
<path d="M213.609 79.3126C214.777 80.2096 214.977 81.7607 214.077 82.9319C213.177 84.103 211.627 84.3086 210.459 83.4116C209.292 82.5146 209.092 80.9634 209.992 79.7923C210.817 78.7187 212.539 78.4903 213.609 79.3126Z" fill="#FFCF2D"/>
</g>
<defs>
<clipPath id="clip0_2234_9590">
<rect width="181.184" height="132.739" fill="white" transform="translate(0 143.662) rotate(-52.4584)"/>
</clipPath>
</defs>
</svg>
